<?xml version="1.0" standalone="no"?>
<!DOCTYPE svg PUBLIC "-//W3C//DTD SVG 20010904//EN"
 "http://www.w3.org/TR/2001/REC-SVG-20010904/DTD/svg10.dtd">
<svg version="1.0" xmlns="http://www.w3.org/2000/svg"
 width="500.000000pt" height="500.000000pt" viewBox="0 0 500.000000 500.000000"
 preserveAspectRatio="xMidYMid meet">

<g transform="translate(0.000000,500.000000) scale(0.100000,-0.100000)"
fill="#000000" stroke="none">
<path d="M0 2500 l0 -2500 2500 0 2500 0 0 2500 0 2500 -2500 0 -2500 0 0
-2500z m1962 358 c31 -16 38 -44 54 -235 8 -103 19 -204 24 -223 6 -19 10 -40
10 -47 0 -14 -53 -33 -91 -33 -34 0 -59 40 -59 93 0 34 -1 34 -51 40 -84 10
-105 2 -128 -53 -12 -27 -21 -55 -21 -63 0 -35 -81 -37 -115 -2 -30 29 -31 37
-4 92 20 41 20 45 5 62 -16 18 -22 61 -8 61 4 0 22 -4 39 -9 32 -9 32 -9 111
97 95 128 129 181 138 216 6 24 9 26 43 20 20 -4 44 -11 53 -16z m246 -4 c22
-14 26 -33 23 -114 -1 -19 -4 -52 -7 -74 l-6 -38 39 39 c66 66 167 81 220 31
l23 -21 0 26 c0 20 5 27 19 27 44 0 83 -14 98 -36 14 -22 13 -35 -6 -146 -12
-68 -20 -141 -19 -163 3 -39 2 -40 -31 -43 -69 -7 -101 20 -101 86 0 25 -2 24
-31 -20 -56 -86 -139 -100 -198 -32 -17 19 -31 42 -31 50 0 8 -5 12 -10 9 -6
-4 -10 -28 -8 -53 l3 -47 -42 -3 c-96 -7 -107 32 -68 226 15 75 30 179 33 230
l5 94 36 -7 c20 -4 46 -13 59 -21z m960 -110 c12 -8 22 -24 22 -35 0 -19 3
-19 35 9 46 41 93 49 141 26 21 -11 47 -31 58 -46 25 -34 33 -126 16 -188 -16
-60 -80 -124 -140 -140 -56 -15 -87 -5 -116 38 l-22 33 -9 -58 c-4 -32 -7 -84
-6 -115 1 -57 1 -57 -30 -63 -41 -8 -82 8 -98 36 -6 12 -9 43 -7 68 l5 46 -43
0 c-54 0 -67 13 -74 72 l-5 47 -30 -48 c-52 -83 -126 -101 -189 -45 -67 58
-71 181 -9 272 59 85 178 115 242 61 l31 -26 0 32 c0 32 1 32 38 25 52 -9 80
-30 85 -62 3 -16 3 -2 2 31 l-3 58 41 -6 c23 -4 52 -14 65 -22z"/>
<path d="M1842 2590 c-28 -38 -52 -74 -52 -80 0 -5 24 -10 55 -10 l55 0 0 80
c0 44 -1 80 -3 80 -1 0 -26 -31 -55 -70z"/>
<path d="M2372 2644 c-71 -50 -73 -214 -2 -214 24 0 55 37 84 100 28 60 33 99
14 118 -17 17 -69 15 -96 -4z"/>
<path d="M3237 2670 c-69 -54 -75 -240 -8 -240 45 0 100 94 101 170 0 80 -41
111 -93 70z"/>
<path d="M2814 2661 c-80 -49 -86 -211 -8 -211 31 0 73 57 99 135 l20 57 -24
19 c-29 24 -48 24 -87 0z"/>
<path d="M3052 2590 c0 -14 2 -19 5 -12 2 6 2 18 0 25 -3 6 -5 1 -5 -13z"/>
<path d="M3035 2510 c-4 -28 -5 -54 -2 -56 3 -3 8 18 12 46 4 28 5 54 2 56 -3
3 -8 -18 -12 -46z"/>
</g>
</svg>
